<svg xmlns="http://www.w3.org/2000/svg" fill="none" viewBox="0 0 64 64" aria-hidden="true"><path fill="#243E90" d="M32 62.72c16.966 0 30.72-13.754 30.72-30.72S48.966 1.28 32 1.28 1.28 15.034 1.28 32 15.034 62.72 32 62.72z"/><path fill="#FFCD05" d="M30.102 14.349l2.013-1.466 2.016 1.466-.768-2.368 2.016-1.466h-2.493l-.77-2.371-.769 2.371h-2.493l2.016 1.466-.768 2.368zM30.102 55.523l2.013-1.465 2.016 1.465-.768-2.368 2.016-1.465h-2.493l-.77-2.372-.769 2.372h-2.493l2.016 1.465-.768 2.368zM10.285 32.566l-.771 2.372 2.016-1.466 2.016 1.466-.772-2.372 2.02-1.465H12.3l-.771-2.371-.768 2.37H8.266l2.019 1.466zM19.808 17.107l2.016-1.465 2.016 1.465-.771-2.371 2.016-1.466h-2.493l-.768-2.368-.771 2.368H18.56l2.016 1.466-.768 2.371zM12.272 24.643l2.016-1.465 2.016 1.465-.771-2.371 2.019-1.466h-2.493l-.771-2.368-.768 2.368h-2.496l2.02 1.466-.772 2.371zM15.06 41.395l-.772-2.371-.768 2.371h-2.496l2.02 1.466-.772 2.371 2.016-1.466 2.016 1.466-.771-2.371 2.019-1.466h-2.493zM19.808 52.768l2.016-1.466 2.016 1.466-.771-2.374 2.016-1.463h-2.493l-.768-2.374-.771 2.374H18.56l2.016 1.463-.768 2.374zM51.933 31.1H49.44l2.02 1.466-.772 2.372 2.016-1.466 2.016 1.466-.771-2.372 2.019-1.465h-2.496l-.768-2.371-.771 2.37zM40.394 17.107l2.016-1.465 2.016 1.465-.768-2.371 2.016-1.466H43.18l-.771-2.368-.772 2.368h-2.49l2.017 1.466-.771 2.371zM47.93 24.643l2.016-1.465 2.016 1.465-.772-2.371 2.02-1.466h-2.496l-.768-2.368-.772 2.368h-2.49l2.017 1.466-.771 2.371zM47.93 45.232l2.016-1.466 2.016 1.466-.772-2.371 2.02-1.466h-2.493l-.771-2.371-.772 2.371h-2.49l2.017 1.466-.771 2.371zM40.394 52.768l2.016-1.466 2.016 1.466-.768-2.374 2.016-1.463H43.18l-.771-2.374-.772 2.374h-2.49l2.017 1.463-.771 2.374z"/><path fill="#CCC" d="M32 1.6c16.64 0 30.4 13.76 30.4 30.4S48.64 62.4 32 62.4 1.6 48.64 1.6 32 15.36 1.6 32 1.6zM32 0C14.4 0 0 14.4 0 32s14.4 32 32 32 32-14.4 32-32S49.6 0 32 0z"/></svg>