<svg xmlns="http://www.w3.org/2000/svg" fill="none" viewBox="0 0 64 64" aria-hidden="true"><path fill="#F7931A" d="M61.83 39.382C57.834 55.99 40.918 65.83 24.618 61.834 8.01 57.837-1.83 40.922 2.166 24.62 6.163 8.013 23.078-1.827 39.38 2.17 55.987 6.166 65.83 23.082 61.83 39.382z"/><path fill="#fff" d="M45.533 27.696c.614-3.997-2.461-6.15-6.765-7.69l1.229-5.536-3.075-.921-1.23 5.536c-.92-.307-1.846-.307-2.767-.615l1.229-5.536-3.383-.924-1.539 5.536c-.614-.308-1.229-.308-2.154-.615l-4.61-1.232-.926 3.693 2.461.614c1.54.308 1.847 1.23 1.54 1.847l-1.54 6.457h.307-.307L21.85 37.23c-.308.307-.615.921-1.54.921l-2.457-.614-1.54 3.69 4.305 1.228c.921.308 1.539.308 2.46.615l-1.539 5.536 3.383.921 1.228-5.536c1.23 0 2.154.308 2.768.615L27.69 50.14l3.382.921 1.54-5.536c5.842 1.23 10.146.615 11.993-4.614 1.539-4.304 0-6.458-3.075-8.304 1.85-.608 3.696-1.837 4.003-4.912zm-7.69 10.762c-.921 4.304-7.997 1.846-10.457 1.228l1.846-7.382c2.46.618 9.84 1.85 8.611 6.154zm.922-10.762c-.922 3.69-6.765 1.843-8.611 1.229l1.539-6.765c2.153.614 8.304 1.536 7.072 5.536z"/><path fill="#CCC" d="M32 1.6c16.64 0 30.4 13.76 30.4 30.4S48.64 62.4 32 62.4 1.6 48.64 1.6 32 15.36 1.6 32 1.6zM32 0C14.4 0 0 14.4 0 32s14.4 32 32 32 32-14.4 32-32S49.6 0 32 0z"/></svg>