<svg width="40" height="46" viewBox="0 0 40 46" fill="none" xmlns="http://www.w3.org/2000/svg">
<path d="M7.43649 27.5693H31.423V14.1827H7.43649V27.5693ZM33.9688 30.1244H4.8999V11.6091H33.9688V30.1244Z" fill="#1A1F3A"/>
<path d="M5.2146 28.8375V24.1068C5.8354 24.1068 6.45011 24.2292 7.02354 24.4671C7.59696 24.7049 8.11785 25.0535 8.5564 25.4929C8.99494 25.9323 9.34252 26.4539 9.57925 27.0278C9.81598 27.6017 9.9372 28.2167 9.93598 28.8375H5.2146Z" fill="#1A1F3A"/>
<path d="M5.2146 12.9146V17.6452C5.8354 17.6452 6.45011 17.5228 7.02354 17.2849C7.59696 17.0471 8.11785 16.6985 8.5564 16.259C8.99494 15.8196 9.34252 15.2981 9.57925 14.7242C9.81598 14.1503 9.9372 13.5353 9.93598 12.9146H5.2146Z" fill="#1A1F3A"/>
<path d="M32.5615 28.8375V24.1068C31.9407 24.1068 31.326 24.2292 30.7525 24.4671C30.1791 24.7049 29.6582 25.0535 29.2197 25.4929C28.7811 25.9323 28.4336 26.4539 28.1968 27.0278C27.9601 27.6017 27.8389 28.2167 27.8401 28.8375H32.5615Z" fill="#1A1F3A"/>
<path d="M32.5615 12.9146V17.6452C31.9407 17.6452 31.326 17.5228 30.7525 17.2849C30.1791 17.0471 29.6582 16.6985 29.2197 16.259C28.7811 15.8196 28.4336 15.2981 28.1968 14.7242C27.9601 14.1503 27.8389 13.5353 27.8401 12.9146H32.5615Z" fill="#1A1F3A"/>
<path d="M23.0633 20.8667C23.0633 18.0895 21.2117 15.7936 18.8881 15.7936C16.5644 15.7936 14.7129 18.0895 14.7129 20.8667C14.7129 23.644 16.5644 25.9399 18.8881 25.9399C21.2117 25.9399 23.0633 23.644 23.0633 20.8667Z" fill="#1A1F3A"/>
<path d="M11.1952 18.9596C11.527 18.9578 11.8518 19.0545 12.1286 19.2375C12.4054 19.4205 12.6216 19.6816 12.7498 19.9876C12.8781 20.2936 12.9126 20.6308 12.849 20.9564C12.7854 21.2821 12.6265 21.5815 12.3926 21.8168C12.1586 22.0521 11.86 22.2126 11.5348 22.278C11.2095 22.3434 10.8721 22.3107 10.5654 22.1842C10.2586 22.0576 9.99639 21.8429 9.81186 21.5671C9.62733 21.2914 9.52881 20.967 9.52881 20.6352C9.5288 20.1924 9.70407 19.7676 10.0163 19.4537C10.3286 19.1397 10.7524 18.9621 11.1952 18.9596Z" fill="#1A1F3A"/>
<path d="M26.5811 18.9596C26.9126 18.9596 27.2365 19.0579 27.5121 19.242C27.7876 19.4261 28.0024 19.6878 28.1292 19.994C28.256 20.3002 28.2892 20.6371 28.2246 20.9621C28.1599 21.2872 28.0003 21.5857 27.766 21.8201C27.5317 22.0544 27.2331 22.214 26.908 22.2787C26.583 22.3433 26.2461 22.3101 25.9399 22.1833C25.6337 22.0565 25.372 21.8417 25.1879 21.5662C25.0038 21.2906 24.9055 20.9666 24.9055 20.6352C24.9055 20.1908 25.0821 19.7646 25.3963 19.4504C25.7105 19.1361 26.1367 18.9596 26.5811 18.9596Z" fill="#1A1F3A"/>
<path d="M27.331 31.8371L16.083 38.3174L27.0625 45.7235L27.1273 42.1871C29.2346 41.9853 31.2744 41.3358 33.1105 40.2821C34.9465 39.2284 36.5363 37.7947 37.7736 36.0771C39.234 33.9136 40.0098 31.3607 39.9999 28.7504C39.9899 26.1401 39.1949 23.5932 37.718 21.4408L37.0885 21.6445C37.7147 23.1432 37.9579 24.7742 37.7963 26.3903C37.6347 28.0065 37.0733 29.557 36.1628 30.9021C35.1512 32.3244 33.8222 33.4915 32.2812 34.311C30.7402 35.1306 29.0295 35.5799 27.2847 35.6235L27.3588 31.7723L27.331 31.8371Z" fill="#1A1F3A"/>
<path d="M7.6957 9.35944L14.463 4.48993L7.64015 0V2.35143C6.30622 2.62418 5.04572 3.17808 3.94267 3.97624C2.83962 4.7744 1.91934 5.79848 1.24314 6.98023C0.384988 8.48366 -0.0438065 10.1939 0.00353627 11.9244C0.0508791 13.6548 0.572541 15.339 1.51162 16.7933L1.90043 16.6359C1.48597 15.6137 1.31214 14.5099 1.39237 13.4098C1.47261 12.3097 1.80476 11.2428 2.36315 10.2916C2.92154 9.34036 3.69121 8.53028 4.61265 7.92399C5.5341 7.3177 6.58263 6.93145 7.67718 6.79508V9.38722L7.6957 9.35944Z" fill="#1A1F3A"/>
</svg>
