<svg width="41" height="37" viewBox="0 0 41 37" fill="none" xmlns="http://www.w3.org/2000/svg">
<path d="M40.6274 26.4736H37.0448C35.8715 25.2555 34.2683 23.6434 33.1129 22.676C30.1393 21.6102 23.2607 19.8726 21.6574 19.3173C17.7792 17.9559 17.1791 19.8189 18.0748 21.7356C19.1138 23.8314 22.0873 24.2972 23.0367 24.7271C24.4788 25.3899 24.8281 25.363 24.8281 26.1154C24.8032 26.2902 24.7422 26.458 24.6489 26.608C24.4386 26.9621 24.1574 27.269 23.823 27.5095C23.4885 27.7499 23.108 27.9187 22.7053 28.0052C20.3677 28.5336 17.9136 29.2233 17.6986 29.2681L9.58399 26.6975C9.49442 26.6259 6.65519 22.8373 4.38918 22.6133C2.42769 22.4073 1.03943 23.1955 0.654297 24.0106C3.22089 26.8831 5.96074 29.5961 8.85851 32.1342C9.83477 32.7432 20.2244 36.5587 21.5231 36.5587H40.6543V26.4736H40.6274ZM21.4962 36.5587C21.1738 36.5587 21.8097 36.6035 21.4962 36.5587V36.5587Z" fill="#1A1F3A"/>
<path d="M16.624 11.1308C16.6223 10.3966 16.8384 9.6785 17.2452 9.06735C17.652 8.4562 18.231 7.97955 18.9089 7.69779C19.5868 7.41603 20.3331 7.34184 21.0532 7.48463C21.7734 7.62742 22.4349 7.98076 22.954 8.49987C23.4731 9.01899 23.8265 9.68051 23.9692 10.4006C24.112 11.1208 24.0378 11.867 23.7561 12.545C23.4743 13.2229 22.9977 13.8019 22.3865 14.2087C21.7754 14.6154 21.0572 14.8316 20.3231 14.8298C19.342 14.8298 18.4012 14.4401 17.7075 13.7464C17.0137 13.0527 16.624 12.1118 16.624 11.1308Z" fill="#1A1F3A"/>
<path d="M6.01026 4.47608C6.01026 3.74271 6.22774 3.0258 6.63518 2.41602C7.04263 1.80624 7.62174 1.33098 8.29929 1.05033C8.97684 0.769674 9.7224 0.696241 10.4417 0.839316C11.161 0.982391 11.8217 1.33555 12.3402 1.85412C12.8588 2.3727 13.212 3.0334 13.3551 3.75269C13.4981 4.47197 13.4247 5.21753 13.144 5.89508C12.8634 6.57263 12.3881 7.15174 11.7783 7.55919C11.1686 7.96663 10.4517 8.1841 9.71828 8.1841C9.231 8.18528 8.7483 8.09018 8.29789 7.90425C7.84748 7.71832 7.43824 7.44524 7.09369 7.10068C6.74913 6.75612 6.47604 6.34689 6.29012 5.89648C6.10419 5.44607 6.00908 4.96336 6.01026 4.47608Z" fill="#1A1F3A"/>
<path d="M7.37184 18.3769C7.37007 17.6427 7.58625 16.9246 7.99301 16.3134C8.39977 15.7023 8.9788 15.2256 9.65672 14.9439C10.3346 14.6621 11.0809 14.5879 11.801 14.7307C12.5212 14.8735 13.1827 15.2269 13.7018 15.746C14.2209 16.2651 14.5743 16.9266 14.717 17.6467C14.8598 18.3668 14.7856 19.1131 14.5039 19.7911C14.2221 20.469 13.7455 21.048 13.1343 21.4548C12.5232 21.8615 11.805 22.0777 11.0709 22.0759C10.0898 22.0759 9.14897 21.6862 8.45526 20.9925C7.76155 20.2988 7.37184 19.3579 7.37184 18.3769Z" fill="#1A1F3A"/>
</svg>
