<svg width="41" height="41" viewBox="0 0 41 41" fill="none" xmlns="http://www.w3.org/2000/svg">
<circle cx="20.8243" cy="20.7681" r="18.5" stroke="#1A1F3A" stroke-width="3"/>
<path d="M28.8188 24.1933C28.6874 23.927 28.4808 23.7052 28.2246 23.5551C27.9687 23.4154 27.6799 23.347 27.3884 23.3571C27.1112 23.3495 26.8372 23.418 26.5962 23.5551C26.3487 23.6894 26.1488 23.8969 26.024 24.1493C25.8529 24.5027 25.7414 24.8819 25.6939 25.2716C25.6055 25.8171 25.5687 26.3697 25.5839 26.9221C25.5783 27.5327 25.615 28.1431 25.6939 28.7486C25.754 29.1413 25.8805 29.5208 26.068 29.8709C26.1997 30.1128 26.3984 30.3115 26.6402 30.4431C26.8925 30.5429 27.1611 30.5951 27.4324 30.5972C27.7398 30.6 28.0428 30.5242 28.3127 30.3771C28.5551 30.2234 28.7465 30.0013 28.8628 29.7389C29.0179 29.3903 29.1146 29.0186 29.1489 28.6386C29.1861 28.0964 29.1861 27.5523 29.1489 27.0101C29.1872 26.446 29.1872 25.8798 29.1489 25.3156C29.0838 24.9297 28.973 24.553 28.8188 24.1933ZM32.5159 29.4529C32.326 30.1676 31.9886 30.8348 31.5256 31.4114C31.0671 31.9716 30.4775 32.4099 29.8091 32.6878C29.022 33.0152 28.1746 33.1727 27.3224 33.1499C26.4484 33.1768 25.5787 33.0193 24.7696 32.6878C24.1275 32.407 23.5616 31.977 23.1192 31.4334C22.6897 30.8614 22.3962 30.1992 22.2609 29.4968C22.0779 28.6882 21.9892 27.8612 21.9968 27.0321C21.9921 26.1934 22.0957 25.3576 22.3049 24.5454C22.4876 23.8322 22.8174 23.1651 23.2732 22.5868C23.7266 22.0253 24.3076 21.5802 24.9677 21.2885C25.7631 20.963 26.6173 20.8056 27.4764 20.8263C28.3817 20.7894 29.2839 20.9548 30.1172 21.3104C30.7719 21.6011 31.3404 22.0559 31.7677 22.6308C32.1687 23.2164 32.4527 23.874 32.6039 24.5674C32.7565 25.328 32.8302 26.1023 32.824 26.8781C32.8314 27.7459 32.7278 28.6112 32.5159 29.4529ZM13.7224 32.7098C13.6236 32.8372 13.5131 32.9551 13.3923 33.0619C13.2628 33.1526 13.1223 33.2266 12.9742 33.2819C12.7757 33.3536 12.5684 33.398 12.358 33.414H11.5218C11.2069 33.4416 10.8903 33.4416 10.5755 33.414C10.3893 33.3901 10.2138 33.3138 10.0693 33.1939C10.0256 33.1511 9.99123 33.0996 9.96849 33.0428C9.94576 32.986 9.93514 32.925 9.9373 32.8638C9.98206 32.6935 10.0648 32.5355 10.1794 32.4017L26.9263 9.493C27.025 9.37221 27.1356 9.26164 27.2563 9.16292C27.3817 9.06012 27.5229 8.97836 27.6745 8.92085C27.8806 8.84927 28.0951 8.80486 28.3127 8.78878H29.1929C29.5077 8.76116 29.8244 8.76116 30.1392 8.78878C30.3268 8.80747 30.5038 8.88444 30.6454 9.00886C30.6795 9.05714 30.6978 9.11479 30.6978 9.1739C30.6978 9.23301 30.6795 9.29066 30.6454 9.33894C30.6095 9.50425 30.5423 9.66115 30.4473 9.80109L13.7224 32.7098ZM8.08877 17.8114C7.90653 16.9953 7.81794 16.1609 7.8247 15.3247C7.82 14.486 7.92355 13.6502 8.13279 12.838C8.31551 12.1248 8.6453 11.4577 9.10104 10.8794C9.55447 10.3179 10.1354 9.87275 10.7955 9.58101C11.5909 9.25552 12.4451 9.09819 13.3043 9.1189C14.2113 9.08821 15.1137 9.26115 15.945 9.62504C16.6031 9.89954 17.1738 10.3485 17.5955 10.9234C18.0017 11.5061 18.2861 12.1648 18.4318 12.86C18.5845 13.628 18.6582 14.4096 18.6519 15.1927C18.6686 16.061 18.565 16.9275 18.3438 17.7674C18.1442 18.4785 17.8078 19.1437 17.3535 19.726C16.8986 20.2752 16.3171 20.7057 15.659 20.9804C14.8708 21.3041 14.0241 21.4614 13.1722 21.4425C12.2911 21.4711 11.4137 21.3137 10.5975 20.9804C9.94521 20.7171 9.37531 20.284 8.94702 19.726C8.51078 19.1663 8.21633 18.5095 8.08877 17.8114ZM11.8959 18.1855C12.0279 18.4216 12.227 18.6131 12.468 18.7357C12.718 18.8434 12.9882 18.896 13.2603 18.8898C13.566 18.9024 13.8697 18.834 14.1405 18.6917C14.3837 18.5292 14.5747 18.3 14.6907 18.0315C14.8438 17.6808 14.9475 17.3104 14.9988 16.9312C14.9988 16.4691 14.9988 15.9409 14.9988 15.3027C15.0018 14.7433 14.965 14.1844 14.8887 13.6302C14.8233 13.2373 14.7126 12.8533 14.5587 12.4859C14.4353 12.2212 14.2362 11.9991 13.9865 11.8477C13.7218 11.71 13.4265 11.6419 13.1282 11.6496C12.851 11.6421 12.577 11.7106 12.336 11.8477C12.0878 11.9911 11.8885 12.2058 11.7638 12.4639C11.5895 12.8082 11.4777 13.1808 11.4338 13.5642C11.3472 14.1099 11.3104 14.6623 11.3237 15.2147C11.3139 15.8335 11.3581 16.452 11.4557 17.0632C11.5064 17.4551 11.6255 17.835 11.8079 18.1855H11.8959Z" fill="#1A1F3A"/>
</svg>
